<?xml version="1.0" encoding="UTF-8"?>
<!DOCTYPE svg PUBLIC "-//W3C//DTD SVG 1.1//EN" "http://www.w3.org/Graphics/SVG/1.1/DTD/svg11.dtd">
<svg xmlns="http://www.w3.org/2000/svg" version="1.1" width="1963px" height="1483px" style="shape-rendering:geometricPrecision; text-rendering:geometricPrecision; image-rendering:optimizeQuality; fill-rule:evenodd; clip-rule:evenodd" xmlns:xlink="http://www.w3.org/1999/xlink">
<g><path style="opacity:0.999" fill="#000000" d="M 1962.5,636.5 C 1962.5,643.167 1962.5,649.833 1962.5,656.5C 1951.27,733.779 1922.27,803.612 1875.5,866C 1906.12,855.059 1926.62,864.893 1937,895.5C 1943.28,929.393 1935.61,959.726 1914,986.5C 1892.53,1011.5 1866.36,1030 1835.5,1042C 1788.72,1061.42 1740.06,1070.42 1689.5,1069C 1690.94,1071.22 1692.6,1073.22 1694.5,1075C 1673.26,1084.44 1651.59,1093.11 1629.5,1101C 1624.36,1104.38 1618.03,1107.38 1610.5,1110C 1698.43,1145.49 1786.43,1180.99 1874.5,1216.5C 1875.81,1217.26 1876.31,1218.26 1876,1219.5C 1868.07,1221.65 1860.07,1223.65 1852,1225.5C 1851.23,1225.36 1850.56,1225.02 1850,1224.5C 1849.21,1226.79 1847.88,1227.12 1846,1225.5C 1840.72,1226.78 1835.39,1227.78 1830,1228.5C 1743.49,1219.74 1656.99,1211.07 1570.5,1202.5C 1568.17,1202.5 1565.83,1202.5 1563.5,1202.5C 1560.8,1201.86 1558.14,1201.02 1555.5,1200C 1510.48,1196.05 1465.48,1192.05 1420.5,1188C 1315.98,1188.06 1211.48,1186.89 1107,1184.5C 1029.3,1184.42 951.802,1188.25 874.5,1196C 782.391,1200.45 690.224,1202.61 598,1202.5C 577.666,1202.21 557.333,1201.87 537,1201.5C 511.785,1202.03 486.618,1203.2 461.5,1205C 523.661,1171.09 585.661,1136.92 647.5,1102.5C 597.812,1080.65 548.145,1058.82 498.5,1037C 564.311,1023.81 630.311,1011.48 696.5,1000C 731.594,993.934 766.927,990.101 802.5,988.5C 837.436,993.075 872.436,997.242 907.5,1001C 952.098,1005.41 996.764,1006.41 1041.5,1004C 1079.53,1000.29 1117.53,996.293 1155.5,992C 1177.15,989.453 1198.81,989.119 1220.5,991C 1244.26,995.965 1268.26,998.965 1292.5,1000C 1331.16,999.726 1369.83,999.726 1408.5,1000C 1426.58,1000.86 1444.58,1002.36 1462.5,1004.5C 1463.59,1003.27 1464.92,1002.44 1466.5,1002C 1444.21,989.684 1423.88,974.684 1405.5,957C 1398.09,953.548 1390.93,949.715 1384,945.5C 1344.66,968.065 1302.82,974.232 1258.5,964C 1251.27,961.922 1244.27,959.256 1237.5,956C 1217.58,944.124 1198.08,931.624 1179,918.5C 1178.09,932.815 1174.09,946.148 1167,958.5C 1163.13,963.854 1157.97,967.354 1151.5,969C 1121.5,976.154 1091.16,978.154 1060.5,975C 1052.13,970.481 1044.46,964.981 1037.5,958.5C 1023.19,967.66 1007.52,973.16 990.5,975C 965.592,978.195 940.592,979.195 915.5,978C 904.677,977.314 894.011,975.647 883.5,973C 867.667,966.833 851.833,960.667 836,954.5C 830.234,957.929 824.734,961.762 819.5,966C 750.203,980.457 680.536,982.457 610.5,972C 596.701,967.52 584.535,960.354 574,950.5C 570,957.833 566,965.167 562,972.5C 545.852,989.661 527.685,1004.16 507.5,1016C 431.673,1062.11 349.34,1086.94 260.5,1090.5C 198.05,1089.84 140.05,1073.68 86.5,1042C 62.6969,1026.87 44.5302,1006.7 32,981.5C 23.1358,961.981 20.4691,941.648 24,920.5C 32.8763,887.144 53.7096,875.977 86.5,887C 39.7272,824.612 10.7272,754.779 -0.5,677.5C -0.5,670.833 -0.5,664.167 -0.5,657.5C 7.58789,621.944 30.0879,603.611 67,602.5C 87.5405,602.452 104.874,609.785 119,624.5C 133.012,643.174 145.012,663.174 155,684.5C 156.134,669.491 159.8,655.157 166,641.5C 179.297,621.272 198.13,612.439 222.5,615C 244.403,619.232 260.236,631.399 270,651.5C 273.977,660.24 275.81,669.406 275.5,679C 273.768,696.316 272.102,713.65 270.5,731C 270.833,732.5 271.167,734 271.5,735.5C 282.185,729.214 293.518,724.381 305.5,721C 331.183,714.33 357.183,709.33 383.5,706C 365.368,696.548 349.534,684.048 336,668.5C 322.513,651.524 309.513,634.191 297,616.5C 287.615,599.009 282.281,580.342 281,560.5C 270.969,529.495 269.969,498.161 278,466.5C 283.134,441.575 293.134,418.908 308,398.5C 336.397,369.216 370.897,351.383 411.5,345C 452.643,338.914 492.643,343.247 531.5,358C 545.351,364.2 557.851,372.366 569,382.5C 569.495,380.527 569.662,378.527 569.5,376.5C 643.869,385.921 718.203,395.588 792.5,405.5C 793.949,409.472 796.449,412.806 800,415.5C 799.344,398.181 798.511,380.847 797.5,363.5C 840.865,368.337 884.198,373.504 927.5,379C 954.056,401.857 980.889,424.357 1008,446.5C 1007.96,419.143 1007.13,391.81 1005.5,364.5C 1080.85,368.668 1156.18,373.168 1231.5,378C 1232.67,378.5 1233.5,379.333 1234,380.5C 1236.57,396.848 1239.24,413.181 1242,429.5C 1242.31,430.308 1242.81,430.975 1243.5,431.5C 1246.66,429.973 1249.99,429.307 1253.5,429.5C 1255.11,401.18 1256.45,372.847 1257.5,344.5C 1259.29,344.785 1260.95,344.452 1262.5,343.5C 1261.74,339.889 1261.24,336.222 1261,332.5C 1260.64,330.579 1259.81,328.912 1258.5,327.5C 1246.32,324.121 1234.32,321.121 1222.5,318.5C 1213.56,313.372 1207.73,305.705 1205,295.5C 1203.84,289.532 1202.84,283.532 1202,277.5C 1198.07,275.409 1194.57,272.742 1191.5,269.5C 1190.2,265.968 1190.2,262.468 1191.5,259C 1180.65,255.326 1174.98,247.826 1174.5,236.5C 1174.66,227.512 1177.66,219.678 1183.5,213C 1191.54,207.093 1199.04,207.927 1206,215.5C 1206.17,215.167 1206.33,214.833 1206.5,214.5C 1201.48,209.316 1196.65,203.983 1192,198.5C 1184.81,185.248 1186.64,173.414 1197.5,163C 1204.06,158.517 1210.73,158.351 1217.5,162.5C 1217.83,162.167 1218.17,161.833 1218.5,161.5C 1208.22,146.166 1209.55,131.999 1222.5,119C 1228.45,115.752 1234.79,114.752 1241.5,116C 1243.29,116.785 1244.79,117.951 1246,119.5C 1252.83,102.511 1260.17,85.8441 1268,69.5C 1308.02,88.9267 1348.18,107.927 1388.5,126.5C 1378.68,159.786 1368.35,192.952 1357.5,226C 1363.61,233.718 1369.11,241.885 1374,250.5C 1375.41,257.942 1373.74,264.609 1369,270.5C 1363.38,278.453 1357.38,286.12 1351,293.5C 1349.08,296.339 1347.41,299.339 1346,302.5C 1340.43,319.125 1336.59,336.125 1334.5,353.5C 1337.17,353.5 1339.83,353.5 1342.5,353.5C 1340.2,375.134 1337.2,396.634 1333.5,418C 1339.17,417.667 1344.83,417.333 1350.5,417C 1359.03,427.9 1367.2,439.067 1375,450.5C 1374.14,427.857 1373.3,405.191 1372.5,382.5C 1447.2,388.942 1521.86,395.776 1596.5,403C 1607,414.167 1617.5,425.333 1628,436.5C 1631.01,464.756 1633.17,493.09 1634.5,521.5C 1589.17,520.528 1543.84,519.862 1498.5,519.5C 1501.3,545.479 1503.96,571.479 1506.5,597.5C 1533.84,597.333 1561.17,597.5 1588.5,598C 1596.79,600.489 1605.12,602.822 1613.5,605C 1618.28,639.069 1622.61,673.236 1626.5,707.5C 1589.18,710.099 1551.85,712.432 1514.5,714.5C 1517.57,741.001 1521.57,767.334 1526.5,793.5C 1557.49,790.168 1588.49,787.335 1619.5,785C 1625.63,794.76 1632.13,804.26 1639,813.5C 1644.25,824.088 1648.42,835.088 1651.5,846.5C 1662.76,833.732 1672.26,819.732 1680,804.5C 1684.5,789.853 1687.16,774.853 1688,759.5C 1688.29,737.661 1688.79,715.828 1689.5,694C 1689.37,685.763 1688.53,677.596 1687,669.5C 1683.46,635.729 1696.96,611.562 1727.5,597C 1750.7,589.505 1771.2,594.005 1789,610.5C 1795.76,619.088 1800.43,628.755 1803,639.5C 1804.77,647.428 1806.1,655.428 1807,663.5C 1818.05,639.214 1832.21,617.047 1849.5,597C 1873.46,579.979 1899.12,576.979 1926.5,588C 1947.13,597.791 1959.13,613.958 1962.5,636.5 Z M 1236.5,178.5 C 1239.62,180.448 1242.62,182.615 1245.5,185C 1244.93,186.205 1244.26,187.372 1243.5,188.5C 1240.34,185.683 1238,182.35 1236.5,178.5 Z M 1226.5,231.5 C 1228.03,231.517 1228.53,232.184 1228,233.5C 1227.28,232.956 1226.78,232.289 1226.5,231.5 Z"/></g>
<g><path style="opacity:1" fill="#251815" d="M 1273.5,87.5 C 1306.62,102.56 1339.62,117.893 1372.5,133.5C 1364.65,159.9 1356.48,186.233 1348,212.5C 1346.95,213.517 1345.78,213.684 1344.5,213C 1341.17,210.511 1338.83,207.344 1337.5,203.5C 1343.1,189.211 1348.6,174.878 1354,160.5C 1355.65,156.578 1356.65,152.578 1357,148.5C 1331.35,136.508 1305.68,124.508 1280,112.5C 1275.17,120.829 1270.84,129.496 1267,138.5C 1265.95,139.517 1264.78,139.684 1263.5,139C 1260.54,136.237 1258.21,133.071 1256.5,129.5C 1262.18,115.484 1267.84,101.484 1273.5,87.5 Z"/></g>
<g><path style="opacity:1" fill="#e73332" d="M 1274.5,88.5 C 1306.94,103.885 1339.27,119.552 1371.5,135.5C 1363.15,161.266 1354.65,186.933 1346,212.5C 1342.93,209.938 1340.43,206.938 1338.5,203.5C 1346.09,185.401 1353.09,167.068 1359.5,148.5C 1332.86,135.85 1306.2,123.183 1279.5,110.5C 1274.43,119.642 1269.59,128.975 1265,138.5C 1262.02,135.869 1259.52,132.869 1257.5,129.5C 1263.46,115.926 1269.12,102.26 1274.5,88.5 Z"/></g>
<g><path style="opacity:1" fill="#fefffe" d="M 1232.5,125.5 C 1234.99,125.298 1237.32,125.798 1239.5,127C 1250.37,138.2 1260.87,149.7 1271,161.5C 1277.39,171.628 1275.05,178.628 1264,182.5C 1250,175.834 1237.66,166.834 1227,155.5C 1222,147.802 1221.33,139.802 1225,131.5C 1227.13,128.847 1229.63,126.847 1232.5,125.5 Z"/></g>
<g><path style="opacity:1" fill="#fefffe" d="M 1204.5,170.5 C 1208.13,170.16 1211.46,170.994 1214.5,173C 1225.41,183.906 1235.58,195.406 1245,207.5C 1251.23,214.965 1250.9,221.965 1244,228.5C 1228.62,219.805 1214.95,208.805 1203,195.5C 1195.7,186.735 1196.2,178.402 1204.5,170.5 Z"/></g>
<g><path style="opacity:1" fill="#fefffe" d="M 1303.5,193.5 C 1307.02,193.929 1310.02,195.429 1312.5,198C 1330.65,215.674 1346.65,235.007 1360.5,256C 1351.79,268.588 1342.96,281.088 1334,293.5C 1327.28,312.373 1322.45,331.706 1319.5,351.5C 1303.86,349.614 1288.19,347.947 1272.5,346.5C 1273.13,337.237 1271.29,328.57 1267,320.5C 1265.75,319.789 1264.58,318.956 1263.5,318C 1254.57,315.414 1245.57,313.081 1236.5,311C 1221.94,308.3 1214.61,299.8 1214.5,285.5C 1224.99,291.743 1235.99,296.91 1247.5,301C 1263.72,304.264 1279.89,307.764 1296,311.5C 1302.46,306.045 1308.62,300.212 1314.5,294C 1312,290.167 1309.5,286.333 1307,282.5C 1305.16,274.016 1307,266.516 1312.5,260C 1319.17,255.667 1325.83,251.333 1332.5,247C 1319.69,240.506 1309.19,231.339 1301,219.5C 1296.5,210.45 1297.33,201.784 1303.5,193.5 Z"/></g>
<g><path style="opacity:1" fill="#fefffe" d="M 1192.5,219.5 C 1205.64,227.835 1217.8,237.501 1229,248.5C 1229.68,252.18 1228.18,254.68 1224.5,256C 1221.83,256.667 1219.17,256.667 1216.5,256C 1207.76,253.197 1199.09,250.197 1190.5,247C 1183.89,241.178 1182.72,234.345 1187,226.5C 1187.97,223.379 1189.8,221.046 1192.5,219.5 Z"/></g>
<g><path style="opacity:1" fill="#c4493d" d="M 1210.5,264.5 C 1217.8,267.344 1224.8,266.844 1231.5,263C 1233.05,261.108 1234.89,259.608 1237,258.5C 1247.38,265.773 1258.55,271.607 1270.5,276C 1277.87,277.897 1285.2,277.73 1292.5,275.5C 1292.4,281.41 1293.73,286.91 1296.5,292C 1295.49,294.847 1293.49,296.347 1290.5,296.5C 1275.82,293.397 1261.15,290.231 1246.5,287C 1234.14,281.403 1222.3,274.903 1211,267.5C 1210.52,266.552 1210.35,265.552 1210.5,264.5 Z"/></g>
<g><path style="opacity:1" fill="#e73332" d="M 1236.5,259.5 C 1246.62,266.893 1257.62,272.726 1269.5,277C 1276.57,279.105 1283.57,278.938 1290.5,276.5C 1291.65,280.427 1292.49,284.427 1293,288.5C 1296.2,291.893 1295.37,294.226 1290.5,295.5C 1276.18,292.27 1261.85,289.103 1247.5,286C 1234.89,280.362 1222.89,273.695 1211.5,266C 1214.96,266.213 1218.46,266.713 1222,267.5C 1228.13,267.022 1232.96,264.355 1236.5,259.5 Z"/></g>
<g><path style="opacity:0.004" fill="#000000" d="M 1222.5,318.5 C 1221.83,319.167 1221.83,319.167 1222.5,318.5 Z"/></g>
<g><path style="opacity:0.004" fill="#000000" d="M 1228.5,321.5 C 1229.83,322.167 1229.83,322.167 1228.5,321.5 Z"/></g>
<g><path style="opacity:0.004" fill="#000000" d="M 1228.5,323.5 C 1229.83,324.167 1229.83,324.167 1228.5,323.5 Z"/></g>
<g><path style="opacity:0.004" fill="#000000" d="M 1219.5,324.5 C 1220.83,325.167 1220.83,325.167 1219.5,324.5 Z"/></g>
<g><path style="opacity:0.004" fill="#000000" d="M 1229.5,325.5 C 1230.83,326.167 1230.83,326.167 1229.5,325.5 Z"/></g>
<g><path style="opacity:0.004" fill="#000000" d="M 1225.5,326.5 C 1226.83,327.167 1226.83,327.167 1225.5,326.5 Z"/></g>
<g><path style="opacity:0.004" fill="#000000" d="M 1222.5,329.5 C 1221.83,328.167 1221.83,328.167 1222.5,329.5 Z"/></g>
<g><path style="opacity:0.004" fill="#000000" d="M 1224.5,328.5 C 1225.83,329.167 1225.83,329.167 1224.5,328.5 Z"/></g>
<g><path style="opacity:0.004" fill="#000000" d="M 1226.5,329.5 C 1227.25,328.427 1228.25,328.26 1229.5,329C 1228.55,329.483 1227.55,329.649 1226.5,329.5 Z"/></g>
<g><path style="opacity:0.004" fill="#000000" d="M 1217.5,329.5 C 1218.83,330.167 1218.83,330.167 1217.5,329.5 Z"/></g>
<g><path style="opacity:0.004" fill="#000000" d="M 1222.5,329.5 C 1223.53,329.897 1223.69,330.563 1223,331.5C 1222.54,330.906 1222.37,330.239 1222.5,329.5 Z"/></g>
<g><path style="opacity:0.004" fill="#000000" d="M 1219.5,330.5 C 1220.83,331.167 1220.83,331.167 1219.5,330.5 Z"/></g>
<g><path style="opacity:0.004" fill="#000000" d="M 1225.5,331.5 C 1225.9,330.475 1226.56,330.308 1227.5,331C 1226.91,331.464 1226.24,331.631 1225.5,331.5 Z"/></g>
<g><path style="opacity:0.004" fill="#000000" d="M 1229.5,330.5 C 1230.83,331.167 1230.83,331.167 1229.5,330.5 Z"/></g>
<g><path style="opacity:0.004" fill="#000000" d="M 1223.5,334.5 C 1222.53,334.013 1221.53,333.513 1220.5,333C 1222.16,332.275 1223.16,332.775 1223.5,334.5 Z"/></g>
<g><path style="opacity:0.004" fill="#000000" d="M 1226.5,333.5 C 1225.83,332.167 1225.83,332.167 1226.5,333.5 Z"/></g>
<g><path style="opacity:0.004" fill="#000000" d="M 1225.5,333.5 C 1225.29,335.424 1224.62,335.757 1223.5,334.5C 1224.17,334.167 1224.83,333.833 1225.5,333.5 Z"/></g>
<g><path style="opacity:0.004" fill="#000000" d="M 1226.5,333.5 C 1227.55,333.351 1228.55,333.517 1229.5,334C 1228.25,334.74 1227.25,334.573 1226.5,333.5 Z"/></g>
<g><path style="opacity:0.004" fill="#000000" d="M 1227.5,335.5 C 1228.83,336.167 1228.83,336.167 1227.5,335.5 Z"/></g>
<g><path style="opacity:1" fill="#1c476e" d="M 429.5,364.5 C 462.208,362.672 493.875,367.506 524.5,379C 547.562,390.728 565.395,407.895 578,430.5C 587.967,448.436 595.134,467.436 599.5,487.5C 599.182,488.647 598.516,489.481 597.5,490C 572.833,494.667 548.167,499.333 523.5,504C 521.098,504.814 518.765,504.647 516.5,503.5C 512.311,488.746 507.811,474.08 503,459.5C 492.91,438.766 476.41,426.266 453.5,422C 417.084,420.423 392.25,436.589 379,470.5C 372.719,491.817 375.053,512.15 386,531.5C 403.024,557.859 425.191,578.692 452.5,594C 477.55,608.024 503.884,619.024 531.5,627C 568.635,644.157 590.802,672.99 598,713.5C 601.805,738.072 602.472,762.739 600,787.5C 595.949,805.271 587.949,820.938 576,834.5C 553.793,859.176 527.626,878.342 497.5,892C 463.632,902.995 429.632,903.328 395.5,893C 370.935,885.716 348.268,874.716 327.5,860C 321,854.833 315.167,849 310,842.5C 297.981,825.464 288.314,807.13 281,787.5C 277.848,778.402 276.848,769.069 278,759.5C 278.273,757.671 279.107,756.171 280.5,755C 286.439,751.197 292.773,748.197 299.5,746C 330.804,736.537 362.637,730.704 395,728.5C 403.496,751.988 413.163,774.988 424,797.5C 435.951,817.387 453.451,827.887 476.5,829C 492.707,822.808 501.873,810.975 504,793.5C 512.029,752.652 505.029,714.652 483,679.5C 478.737,673.235 473.237,668.402 466.5,665C 440.245,654.804 413.911,644.804 387.5,635C 353.133,618.969 325.967,594.802 306,562.5C 300.656,552.127 297.323,541.127 296,529.5C 292.71,491.615 300.044,455.948 318,422.5C 331.827,402.657 349.993,388.157 372.5,379C 390.944,371.473 409.944,366.64 429.5,364.5 Z"/></g>
<g><path style="opacity:1" fill="#41a4ff" d="M 430.5,365.5 C 462.531,363.861 493.531,368.695 523.5,380C 546.562,391.728 564.395,408.895 577,431.5C 586.683,449.2 593.85,467.866 598.5,487.5C 572.566,493.52 546.4,498.854 520,503.5C 519.167,503.167 518.333,502.833 517.5,502.5C 513.311,487.746 508.811,473.08 504,458.5C 493.91,437.766 477.41,425.266 454.5,421C 417.056,418.462 391.556,434.629 378,469.5C 371.612,491.478 373.946,512.478 385,532.5C 402.024,558.859 424.191,579.692 451.5,595C 476.55,609.024 502.884,620.024 530.5,628C 567.635,645.157 589.802,673.99 597,714.5C 600.796,738.405 601.463,762.405 599,786.5C 594.949,804.271 586.949,819.938 575,833.5C 552.793,858.176 526.626,877.342 496.5,891C 463.3,901.995 429.966,902.328 396.5,892C 371.935,884.716 349.268,873.716 328.5,859C 322,853.833 316.167,848 311,841.5C 298.981,824.464 289.314,806.13 282,786.5C 278.922,778.071 277.922,769.404 279,760.5C 279.273,758.671 280.107,757.171 281.5,756C 296.876,747.735 313.21,742.068 330.5,739C 351.057,734.74 371.724,731.24 392.5,728.5C 402.155,751.934 412.322,775.267 423,798.5C 435.475,818.983 453.641,829.483 477.5,830C 493.707,823.808 502.873,811.975 505,794.5C 513.288,752.95 506.288,714.284 484,678.5C 479.737,672.235 474.237,667.402 467.5,664C 441.245,653.804 414.911,643.804 388.5,634C 354.133,617.969 326.967,593.802 307,561.5C 297.065,540.219 293.732,517.886 297,494.5C 299.507,464.301 309.507,436.968 327,412.5C 346.423,392.779 369.59,379.279 396.5,372C 407.838,369.098 419.172,366.931 430.5,365.5 Z"/></g>
<g><path style="opacity:1" fill="#1c476e" d="M 1028.5,387.5 C 1089.82,391.416 1151.15,395.249 1212.5,399C 1213.67,399.5 1214.5,400.333 1215,401.5C 1219.05,424.769 1222.55,448.103 1225.5,471.5C 1183.84,472.662 1142.17,473.662 1100.5,474.5C 1102.48,516.154 1104.15,557.82 1105.5,599.5C 1125.01,599.764 1144.51,599.431 1164,598.5C 1168.26,598.682 1172.42,599.349 1176.5,600.5C 1178.55,618.113 1179.88,635.78 1180.5,653.5C 1158.85,655.07 1137.18,656.404 1115.5,657.5C 1122.44,740.505 1129.44,823.505 1136.5,906.5C 1107.17,906.5 1077.83,906.5 1048.5,906.5C 1048.5,896.486 1048.17,886.486 1047.5,876.5C 1058.46,875.391 1069.46,874.725 1080.5,874.5C 1074.81,831.823 1068.97,789.157 1063,746.5C 1061.82,745.316 1060.32,744.649 1058.5,744.5C 1053.14,745.095 1047.81,745.762 1042.5,746.5C 1038.11,626.814 1033.45,507.147 1028.5,387.5 Z"/></g>
<g><path style="opacity:1" fill="#1c476e" d="M 821.5,388.5 C 848.178,391.501 874.844,394.668 901.5,398C 903.402,398.199 904.902,399.033 906,400.5C 911.333,525.833 916.667,651.167 922,776.5C 922.202,778.256 922.702,779.922 923.5,781.5C 962.623,776.653 1001.79,771.986 1041,767.5C 1042.17,767.833 1043.33,768.167 1044.5,768.5C 1048.97,797.092 1052.97,825.758 1056.5,854.5C 987.531,859.32 918.531,863.653 849.5,867.5C 839.932,707.846 830.599,548.18 821.5,388.5 Z"/></g>
<g><path style="opacity:1" fill="#41a4ff" d="M 1029.5,388.5 C 1090.14,392.499 1150.81,396.332 1211.5,400C 1212.67,400.5 1213.5,401.333 1214,402.5C 1217.83,425.13 1221.33,447.797 1224.5,470.5C 1182.84,471.662 1141.17,472.662 1099.5,473.5C 1101.43,515.823 1103.09,558.156 1104.5,600.5C 1124.35,600.778 1144.18,600.445 1164,599.5C 1167.91,599.791 1171.75,600.457 1175.5,601.5C 1177.45,618.452 1178.78,635.452 1179.5,652.5C 1157.34,653.63 1135.34,655.463 1113.5,658C 1121.3,740.41 1128.63,822.91 1135.5,905.5C 1106.83,905.5 1078.17,905.5 1049.5,905.5C 1049.57,896.148 1049.23,886.815 1048.5,877.5C 1059.46,876.391 1070.46,875.725 1081.5,875.5C 1076.19,830.965 1069.85,786.632 1062.5,742.5C 1056.31,743.538 1050.14,744.538 1044,745.5C 1039.17,626.48 1034.33,507.48 1029.5,388.5 Z"/></g>
<g><path style="opacity:1" fill="#41a4ff" d="M 822.5,389.5 C 848.486,392.665 874.486,395.832 900.5,399C 902.402,399.199 903.902,400.033 905,401.5C 910.312,528.519 915.812,655.519 921.5,782.5C 962.185,777.423 1002.85,773.09 1043.5,769.5C 1047.78,797.455 1051.78,825.455 1055.5,853.5C 987.193,858.232 918.86,862.565 850.5,866.5C 841.01,707.509 831.677,548.509 822.5,389.5 Z"/></g>
<g><path style="opacity:1" fill="#1c476e" d="M 590.5,401.5 C 651.167,409.167 711.833,416.833 772.5,424.5C 774.495,438.459 776.161,452.459 777.5,466.5C 741.509,464.334 705.509,462.334 669.5,460.5C 671.563,507.498 673.563,554.498 675.5,601.5C 704.512,603.437 733.512,605.603 762.5,608C 764.11,623.405 765.11,638.905 765.5,654.5C 733.167,654.5 700.833,654.5 668.5,654.5C 668.984,704.165 669.317,753.832 669.5,803.5C 718.188,802.091 766.855,800.424 815.5,798.5C 815.5,823.833 815.5,849.167 815.5,874.5C 775.186,876.96 734.853,879.126 694.5,881C 654.487,881.543 614.487,881.043 574.5,879.5C 574.173,874.456 574.506,869.456 575.5,864.5C 615.251,829.763 630.751,786.097 622,733.5C 619.429,697.057 606.429,665.057 583,637.5C 584.172,596.52 585.505,555.52 587,514.5C 587.5,514 588,513.5 588.5,513C 600.139,510.616 611.806,508.449 623.5,506.5C 619.738,472.379 608.904,440.712 591,411.5C 590.502,408.183 590.335,404.85 590.5,401.5 Z"/></g>
<g><path style="opacity:1" fill="#41a4ff" d="M 591.5,402.5 C 651.478,410.354 711.478,418.021 771.5,425.5C 773.331,438.811 774.997,452.144 776.5,465.5C 740.784,463.539 705.118,461.205 669.5,458.5C 669.167,461.833 668.833,465.167 668.5,468.5C 670.785,513.157 672.785,557.824 674.5,602.5C 703.512,604.437 732.512,606.603 761.5,609C 763.065,623.744 764.065,638.577 764.5,653.5C 732.167,653.5 699.833,653.5 667.5,653.5C 667.968,703.832 668.302,754.166 668.5,804.5C 716.877,803.198 765.211,801.531 813.5,799.5C 814.5,824.158 814.833,848.824 814.5,873.5C 774.186,875.96 733.853,878.126 693.5,880C 654.154,880.522 614.82,880.022 575.5,878.5C 575.174,874.116 575.508,869.783 576.5,865.5C 616.679,830.144 632.179,785.81 623,732.5C 621.024,708.594 614.691,685.927 604,664.5C 597.764,653.838 590.93,643.671 583.5,634C 585.275,594.521 586.775,555.021 588,515.5C 588.5,515 589,514.5 589.5,514C 601.139,511.616 612.806,509.449 624.5,507.5C 621.154,472.629 610.321,440.296 592,410.5C 591.503,407.854 591.336,405.187 591.5,402.5 Z"/></g>
<g><path style="opacity:1" fill="#1c476e" d="M 1395.5,406.5 C 1455.5,411.969 1515.5,417.469 1575.5,423C 1578.43,439.377 1580.77,455.877 1582.5,472.5C 1542.49,471.878 1502.49,471.211 1462.5,470.5C 1464.83,520.188 1467.5,569.855 1470.5,619.5C 1502.17,619.167 1533.84,619.5 1565.5,620.5C 1567.72,635.798 1569.72,651.132 1571.5,666.5C 1539.15,666.435 1506.82,667.102 1474.5,668.5C 1477.87,718.823 1481.37,769.156 1485,819.5C 1523.43,815.588 1561.93,811.922 1600.5,808.5C 1603.08,828.844 1605.75,849.178 1608.5,869.5C 1544.85,873.44 1481.18,877.107 1417.5,880.5C 1410.07,722.505 1402.74,564.505 1395.5,406.5 Z"/></g>
<g><path style="opacity:1" fill="#41a4ff" d="M 1396.5,407.5 C 1455.81,413.089 1515.15,418.589 1574.5,424C 1577.25,439.735 1579.58,455.569 1581.5,471.5C 1541.5,470.852 1501.5,470.186 1461.5,469.5C 1463.76,519.859 1466.43,570.192 1469.5,620.5C 1501.17,620.167 1532.84,620.5 1564.5,621.5C 1566.54,636.024 1568.54,650.524 1570.5,665C 1538.17,665.768 1505.84,666.268 1473.5,666.5C 1476.92,717.823 1480.25,769.156 1483.5,820.5C 1521.85,816.893 1560.18,813.226 1598.5,809.5C 1599.25,810.376 1599.75,811.376 1600,812.5C 1602.14,831.098 1604.64,849.598 1607.5,868C 1544.53,872.361 1481.53,876.194 1418.5,879.5C 1411.14,722.169 1403.8,564.835 1396.5,407.5 Z"/></g>
<g><path style="opacity:1" fill="#1c476e" d="M 1326.5,441.5 C 1327.5,441.5 1328.5,441.5 1329.5,441.5C 1339.21,592.478 1348.54,743.478 1357.5,894.5C 1326.83,894.5 1296.17,894.5 1265.5,894.5C 1250.91,760.487 1236.24,626.487 1221.5,492.5C 1231.19,492.658 1240.86,492.325 1250.5,491.5C 1249.05,480.144 1247.39,468.81 1245.5,457.5C 1245.83,456.167 1246.17,454.833 1246.5,453.5C 1273.3,449.577 1299.97,445.577 1326.5,441.5 Z"/></g>
<g><path style="opacity:1" fill="#41a4ff" d="M 1327.5,442.5 C 1338.11,592.618 1347.78,742.951 1356.5,893.5C 1326.5,893.5 1296.5,893.5 1266.5,893.5C 1252.08,760.264 1237.42,627.097 1222.5,494C 1232.54,493.796 1242.54,493.129 1252.5,492C 1250.34,480.572 1248.34,469.072 1246.5,457.5C 1246.71,456.006 1247.38,454.839 1248.5,454C 1275.02,450.473 1301.36,446.64 1327.5,442.5 Z"/></g>
<g><path style="opacity:1" fill="#add61e" d="M 1889.5,597.5 C 1909.71,596.201 1926.21,603.201 1939,618.5C 1942.93,624.966 1945.27,631.966 1946,639.5C 1945.88,664.762 1941.88,689.428 1934,713.5C 1910.94,790.133 1870.44,855.633 1812.5,910C 1746.89,958.493 1673.22,986.66 1591.5,994.5C 1575.04,993.801 1558.7,991.967 1542.5,989C 1541.03,988.29 1540.36,987.124 1540.5,985.5C 1599.06,982.036 1652.06,963.203 1699.5,929C 1728.73,902.068 1751.23,870.235 1767,833.5C 1774.17,816.828 1780.5,799.828 1786,782.5C 1794.73,751.32 1804.06,720.32 1814,689.5C 1824.92,659.301 1840.75,632.135 1861.5,608C 1870.16,602.394 1879.5,598.894 1889.5,597.5 Z"/></g>
<g><path style="opacity:1" fill="#fefc13" d="M 1890.5,598.5 C 1909.96,597.694 1925.79,604.694 1938,619.5C 1942.84,627.841 1945.34,636.841 1945.5,646.5C 1934.03,734.41 1899.53,811.744 1842,878.5C 1813.31,910.772 1779.14,935.605 1739.5,953C 1692.48,974.921 1643.15,988.421 1591.5,993.5C 1574.6,992.9 1557.93,990.733 1541.5,987C 1600.03,983.049 1653.03,964.049 1700.5,930C 1729.73,903.068 1752.23,871.235 1768,834.5C 1775.17,817.828 1781.5,800.828 1787,783.5C 1795.73,752.32 1805.06,721.32 1815,690.5C 1825.92,660.301 1841.75,633.135 1862.5,609C 1871.16,603.394 1880.5,599.894 1890.5,598.5 Z"/></g>
<g><path style="opacity:1" fill="#251715" d="M 1542.5,958.5 C 1524.74,961.031 1506.74,962.531 1488.5,963C 1517.4,971.19 1546.4,971.523 1575.5,964C 1616.86,956.336 1654.53,940.336 1688.5,916C 1707.06,900.786 1721.89,882.619 1733,861.5C 1746.9,836.031 1758.9,809.698 1769,782.5C 1776.83,755.664 1784.67,728.831 1792.5,702C 1791.8,685.101 1790.3,668.268 1788,651.5C 1783.31,620.094 1765.48,607.26 1734.5,613C 1712.36,623.441 1702.19,640.941 1704,665.5C 1705.77,677.451 1707.11,689.451 1708,701.5C 1708.32,724.171 1708.82,746.838 1709.5,769.5C 1709.27,788.127 1705.77,806.127 1699,823.5C 1689.92,846.99 1678.26,868.99 1664,889.5C 1648.24,907.422 1630.08,922.089 1609.5,933.5C 1630.89,919.626 1650.06,902.959 1667,883.5C 1686.16,854.68 1699.5,823.347 1707,789.5C 1707.94,782.868 1708.44,776.202 1708.5,769.5C 1707.81,747.172 1707.31,724.838 1707,702.5C 1706.11,690.451 1704.77,678.451 1703,666.5C 1700.52,639.607 1711.69,621.107 1736.5,611C 1767.13,606.575 1784.63,619.742 1789,650.5C 1791.36,667.594 1792.86,684.76 1793.5,702C 1785.21,731.994 1776.38,761.827 1767,791.5C 1754.83,823.84 1739.5,854.507 1721,883.5C 1700.75,910.736 1674.92,930.903 1643.5,944C 1604.59,961.115 1563.92,969.781 1521.5,970C 1510.03,968.922 1498.7,967.088 1487.5,964.5C 1487.5,963.5 1487.5,962.5 1487.5,961.5C 1505.87,961.164 1524.21,960.164 1542.5,958.5 Z"/></g>
<g><path style="opacity:1" fill="#e73232" d="M 1542.5,958.5 C 1566.74,955.089 1589.07,946.755 1609.5,933.5C 1630.08,922.089 1648.24,907.422 1664,889.5C 1678.26,868.99 1689.92,846.99 1699,823.5C 1705.77,806.127 1709.27,788.127 1709.5,769.5C 1708.82,746.838 1708.32,724.171 1708,701.5C 1707.11,689.451 1705.77,677.451 1704,665.5C 1702.19,640.941 1712.36,623.441 1734.5,613C 1765.48,607.26 1783.31,620.094 1788,651.5C 1790.3,668.268 1791.8,685.101 1792.5,702C 1784.67,728.831 1776.83,755.664 1769,782.5C 1758.9,809.698 1746.9,836.031 1733,861.5C 1721.89,882.619 1707.06,900.786 1688.5,916C 1654.53,940.336 1616.86,956.336 1575.5,964C 1546.4,971.523 1517.4,971.19 1488.5,963C 1506.74,962.531 1524.74,961.031 1542.5,958.5 Z"/></g>
<g><path style="opacity:1" fill="#afa62b" d="M 61.5,618.5 C 79.3098,617.378 94.4765,623.044 107,635.5C 124.026,658.544 137.693,683.544 148,710.5C 157.94,741.32 167.274,772.32 176,803.5C 190.32,852.824 213.987,896.824 247,935.5C 262.947,951.443 281.114,964.276 301.5,974C 339.06,993.89 379.06,1004.72 421.5,1006.5C 421.64,1008.12 420.973,1009.29 419.5,1010C 390.876,1016.43 362.209,1016.76 333.5,1011C 265.75,998.443 204.416,971.776 149.5,931C 84.5881,869.624 41.7548,795.124 21,707.5C 18.0925,694.314 16.2592,680.981 15.5,667.5C 17.1328,638.203 32.4661,621.87 61.5,618.5 Z"/></g>
<g><path style="opacity:1" fill="#fefc13" d="M 62.5,619.5 C 79.582,618.801 94.082,624.467 106,636.5C 123.026,659.544 136.693,684.544 147,711.5C 156.94,742.32 166.274,773.32 175,804.5C 189.32,853.824 212.987,897.824 246,936.5C 261.947,952.443 280.114,965.276 300.5,975C 338.091,994.731 378.091,1005.73 420.5,1008C 398.775,1013.27 376.775,1014.93 354.5,1013C 279.15,1002.68 211.15,975.012 150.5,930C 85.5881,868.624 42.7548,794.124 22,706.5C 19.1864,693.638 17.3531,680.638 16.5,667.5C 18.6054,638.729 33.9388,622.729 62.5,619.5 Z"/></g>
<g><path style="opacity:1" fill="#251815" d="M 207.5,630.5 C 232.843,629.919 249.676,641.586 258,665.5C 258.968,669.944 259.468,674.444 259.5,679C 257.877,693.817 256.377,708.65 255,723.5C 254.688,745.838 254.188,768.172 253.5,790.5C 254.076,812.472 258.909,833.472 268,853.5C 275.712,871.26 284.712,888.26 295,904.5C 341.976,959.56 401.809,985.56 474.5,982.5C 474.5,983.5 474.5,984.5 474.5,985.5C 441.721,993.894 409.054,993.394 376.5,984C 336.21,975.587 299.876,958.921 267.5,934C 248.477,916.316 233.31,895.816 222,872.5C 210.901,850.303 200.901,827.637 192,804.5C 183.96,777.382 176.127,750.215 168.5,723C 169.192,708.131 170.359,693.298 172,678.5C 173.071,666.288 176.738,654.955 183,644.5C 189.823,637.343 197.989,632.676 207.5,630.5 Z"/></g>
<g><path style="opacity:1" fill="#e73332" d="M 208.5,631.5 C 232.903,631.734 249.07,643.401 257,666.5C 257.941,670.611 258.441,674.778 258.5,679C 256.795,693.476 255.295,707.976 254,722.5C 253.676,745.171 253.176,767.838 252.5,790.5C 252.915,812.826 257.748,834.159 267,854.5C 274.712,872.26 283.712,889.26 294,905.5C 341.006,960.407 400.839,986.574 473.5,984C 441.435,992.887 409.435,992.554 377.5,983C 337.21,974.587 300.876,957.921 268.5,933C 249.477,915.316 234.31,894.816 223,871.5C 211.901,849.303 201.901,826.637 193,803.5C 185.166,776.664 177.332,749.831 169.5,723C 170.224,708.471 171.39,693.971 173,679.5C 174.071,667.288 177.738,655.955 184,645.5C 190.823,638.343 198.989,633.676 208.5,631.5 Z"/></g>
<g><path style="opacity:1" fill="#51a66c" d="M 1665.5,1050.5 C 1730.98,1056.7 1792.98,1044.87 1851.5,1015C 1878.61,1000.89 1899.45,980.386 1914,953.5C 1922.19,936.164 1924.19,918.164 1920,899.5C 1917.64,890.252 1912.14,883.752 1903.5,880C 1898.1,879.228 1892.76,879.561 1887.5,881C 1869.29,888.101 1852.63,897.767 1837.5,910C 1755.22,987.872 1657.55,1020.21 1544.5,1007C 1523.4,1002.89 1502.74,997.56 1482.5,991C 1495.98,998.407 1509.65,1005.24 1523.5,1011.5C 1509.25,1006.54 1495.58,1000.21 1482.5,992.5C 1481.61,991.675 1481.28,990.675 1481.5,989.5C 1593.54,1026.8 1697.87,1011.64 1794.5,944C 1808.79,932.71 1822.79,921.043 1836.5,909C 1846.98,900.922 1857.98,893.589 1869.5,887C 1903.59,868.377 1921.59,878.377 1923.5,917C 1922.61,938.331 1915.78,957.497 1903,974.5C 1882.7,997.785 1858.2,1015.28 1829.5,1027C 1776.73,1049.18 1722.06,1057.01 1665.5,1050.5 Z"/></g>
<g><path style="opacity:1" fill="#3afeab" d="M 1665.5,1050.5 C 1655.19,1045.34 1644.86,1040.18 1634.5,1035C 1626.94,1031.96 1619.27,1029.29 1611.5,1027C 1582.12,1021.79 1552.78,1016.62 1523.5,1011.5C 1509.65,1005.24 1495.98,998.407 1482.5,991C 1502.74,997.56 1523.4,1002.89 1544.5,1007C 1657.55,1020.21 1755.22,987.872 1837.5,910C 1852.63,897.767 1869.29,888.101 1887.5,881C 1892.76,879.561 1898.1,879.228 1903.5,880C 1912.14,883.752 1917.64,890.252 1920,899.5C 1924.19,918.164 1922.19,936.164 1914,953.5C 1899.45,980.386 1878.61,1000.89 1851.5,1015C 1792.98,1044.87 1730.98,1056.7 1665.5,1050.5 Z"/></g>
<g><path style="opacity:1" fill="#51a66c" d="M 57.5,899.5 C 70.0286,898.731 81.6952,901.564 92.5,908C 104.016,914.589 115.016,921.922 125.5,930C 200.564,1001.66 290.23,1035 394.5,1030C 406.955,1028.76 419.289,1026.76 431.5,1024C 447.963,1019.79 464.297,1015.29 480.5,1010.5C 480.719,1011.68 480.386,1012.68 479.5,1013.5C 419.394,1046.92 355.061,1066.76 286.5,1073C 221.191,1077.67 159.858,1064.34 102.5,1033C 80.7146,1020.21 63.2146,1003.05 50,981.5C 38.0818,960.092 35.7485,937.758 43,914.5C 46.0472,907.622 50.8806,902.622 57.5,899.5 Z"/></g>
<g><path style="opacity:1" fill="#3bffab" d="M 58.5,900.5 C 66.1171,899.912 73.4504,901.079 80.5,904C 96.4674,910.985 111.134,919.985 124.5,931C 211.421,1013.08 314.088,1044.41 432.5,1025C 448.38,1021.03 464.047,1016.7 479.5,1012C 419.103,1045.69 354.436,1065.69 285.5,1072C 220.892,1076.35 160.226,1063.01 103.5,1032C 81.7146,1019.21 64.2146,1002.05 51,980.5C 41.2257,962.964 37.8924,944.297 41,924.5C 43.2257,913.657 49.0591,905.657 58.5,900.5 Z"/></g>
<g><path style="opacity:1" fill="#fdfdfd" d="M 1612.5,1084.5 C 1609.46,1084.73 1606.79,1085.73 1604.5,1087.5C 1587.44,1094.85 1570.11,1102.01 1552.5,1109C 1616.93,1136.96 1681.27,1164.8 1745.5,1192.5C 1749.61,1194.33 1749.27,1195.33 1744.5,1195.5C 1709.62,1190.3 1674.62,1185.46 1639.5,1181C 1637.29,1180.83 1635.29,1180.16 1633.5,1179C 1602.77,1175.87 1572.11,1172.21 1541.5,1168C 1502.17,1167.61 1462.83,1167.77 1423.5,1168.5C 1393.83,1168.37 1364.16,1167.87 1334.5,1167C 1213.53,1161.68 1092.53,1157.35 971.5,1154C 928.474,1153.05 885.474,1153.72 842.5,1156C 748.76,1161.62 655.093,1167.96 561.5,1175C 607.087,1150.4 652.421,1125.4 697.5,1100C 655.5,1081.67 613.5,1063.33 571.5,1045C 638.029,1031.08 705.029,1020.08 772.5,1012C 786.811,1010.62 801.144,1010.29 815.5,1011C 893.33,1024.54 971.663,1029.2 1050.5,1025C 1084.86,1021.58 1119.19,1017.91 1153.5,1014C 1185.76,1009.56 1217.76,1010.9 1249.5,1018C 1259.46,1019.37 1269.46,1020.37 1279.5,1021C 1357.51,1017.56 1435.18,1021.23 1512.5,1032C 1523.34,1033.14 1534,1035.14 1544.5,1038C 1568.29,1039.67 1591.62,1043.51 1614.5,1049.5C 1626.1,1054.3 1637.43,1059.63 1648.5,1065.5C 1649.41,1066.33 1650.08,1067.33 1650.5,1068.5C 1637.87,1074.04 1625.2,1079.37 1612.5,1084.5 Z"/></g>
<g><path style="opacity:1" fill="#050505" d="M 864.5,1037.5 C 869.494,1039 873.494,1041.84 876.5,1046C 867.672,1062.66 858.339,1078.99 848.5,1095C 854.197,1106.89 860.031,1118.73 866,1130.5C 867.136,1133.1 867.969,1135.76 868.5,1138.5C 858.61,1137.89 848.943,1136.06 839.5,1133C 838.333,1131.83 837.167,1130.67 836,1129.5C 831.986,1122.13 827.986,1114.8 824,1107.5C 818.426,1117.73 812.093,1127.39 805,1136.5C 800.466,1134.63 796.466,1131.97 793,1128.5C 793.374,1125.72 794.374,1123.06 796,1120.5C 802.218,1110.57 809.052,1101.07 816.5,1092C 811.129,1077.09 804.796,1062.59 797.5,1048.5C 802.442,1047.03 807.109,1047.7 811.5,1050.5C 812.466,1048.6 812.799,1046.6 812.5,1044.5C 817.381,1045.02 821.548,1047.02 825,1050.5C 831.509,1061.52 837.509,1072.85 843,1084.5C 850.734,1069.04 857.901,1053.37 864.5,1037.5 Z"/></g>
<g><path style="opacity:1" fill="#050504" d="M 904.5,1041.5 C 924.479,1040.22 941.645,1046.55 956,1060.5C 967.286,1076.41 964.786,1089.91 948.5,1101C 937.364,1107.55 925.364,1111.38 912.5,1112.5C 912.748,1121.54 912.415,1130.54 911.5,1139.5C 902.526,1136.85 893.859,1133.35 885.5,1129C 883.996,1127.51 883.163,1125.68 883,1123.5C 882.333,1101.83 882.333,1080.17 883,1058.5C 883.248,1053.44 883.915,1048.44 885,1043.5C 888.425,1042.53 891.925,1042.53 895.5,1043.5C 898.737,1043.32 901.737,1042.66 904.5,1041.5 Z"/></g>
<g><path style="opacity:1" fill="#050404" d="M 1082.5,1041.5 C 1101.93,1040.48 1119.26,1045.98 1134.5,1058C 1141.13,1065.26 1142.29,1073.43 1138,1082.5C 1131.42,1089.54 1123.59,1094.71 1114.5,1098C 1124.74,1109.73 1134.4,1121.9 1143.5,1134.5C 1136.94,1135.87 1130.94,1134.54 1125.5,1130.5C 1125.17,1130.83 1124.83,1131.17 1124.5,1131.5C 1125.75,1133.32 1126.41,1135.32 1126.5,1137.5C 1120.99,1137.8 1115.66,1136.96 1110.5,1135C 1104.62,1124.74 1099.12,1114.24 1094,1103.5C 1089.93,1102.54 1085.77,1102.2 1081.5,1102.5C 1081.75,1115.2 1081.42,1127.86 1080.5,1140.5C 1073.35,1138.5 1066.35,1136 1059.5,1133C 1055.73,1131.7 1052.56,1129.53 1050,1126.5C 1048.51,1100.29 1050.01,1074.29 1054.5,1048.5C 1059.67,1047.13 1064.83,1046.8 1070,1047.5C 1074.05,1045.05 1078.22,1043.05 1082.5,1041.5 Z"/></g>
<g><path style="opacity:1" fill="#050505" d="M 1393.5,1043.5 C 1406.47,1041.88 1417.31,1045.88 1426,1055.5C 1428.9,1059.94 1429.23,1064.6 1427,1069.5C 1422.99,1074.17 1418.49,1074.67 1413.5,1071C 1410.79,1068.63 1408.46,1065.96 1406.5,1063C 1401.53,1063.23 1397.37,1065.39 1394,1069.5C 1381.57,1086.11 1379.24,1104.11 1387,1123.5C 1390.56,1124.34 1394.06,1123.84 1397.5,1122C 1403.11,1118.03 1409.11,1114.86 1415.5,1112.5C 1419.64,1112.98 1421.64,1115.31 1421.5,1119.5C 1421.03,1125.26 1418.37,1129.76 1413.5,1133C 1401.89,1141.92 1389.89,1142.59 1377.5,1135C 1357.11,1122.85 1349.27,1105.02 1354,1081.5C 1359.53,1060.8 1372.7,1048.13 1393.5,1043.5 Z"/></g>
<g><path style="opacity:1" fill="#060606" d="M 724.5,1043.5 C 743.204,1043.1 761.87,1043.6 780.5,1045C 792.858,1056.45 790.858,1060.61 774.5,1057.5C 774.5,1058.5 774.5,1059.5 774.5,1060.5C 764.833,1060.5 755.167,1060.5 745.5,1060.5C 746.07,1066.86 746.903,1073.19 748,1079.5C 748.5,1080 749,1080.5 749.5,1081C 754.5,1081.33 759.5,1081.67 764.5,1082C 769.442,1083.28 772.775,1086.28 774.5,1091C 773.739,1093.42 772.072,1094.76 769.5,1095C 762.508,1095.5 755.508,1095.67 748.5,1095.5C 748.334,1101.18 748.501,1106.84 749,1112.5C 749.273,1114.1 749.773,1115.6 750.5,1117C 760.167,1117.33 769.833,1117.67 779.5,1118C 786.634,1121.64 790.3,1127.47 790.5,1135.5C 777.163,1135.33 763.829,1135.5 750.5,1136C 748.99,1136.85 747.49,1137.68 746,1138.5C 739,1134.92 731.833,1131.75 724.5,1129C 722.759,1127.38 720.925,1125.88 719,1124.5C 719.314,1099.91 719.647,1075.25 720,1050.5C 720.53,1047.42 722.03,1045.08 724.5,1043.5 Z"/></g>
<g><path style="opacity:1" fill="#060606" d="M 977.5,1043.5 C 996.204,1043.1 1014.87,1043.6 1033.5,1045C 1045.86,1056.45 1043.86,1060.61 1027.5,1057.5C 1027.5,1058.5 1027.5,1059.5 1027.5,1060.5C 1017.83,1060.5 1008.17,1060.5 998.5,1060.5C 999.07,1066.86 999.903,1073.19 1001,1079.5C 1001.5,1080 1002,1080.5 1002.5,1081C 1007.5,1081.33 1012.5,1081.67 1017.5,1082C 1022.44,1083.28 1025.78,1086.28 1027.5,1091C 1026.74,1093.42 1025.07,1094.76 1022.5,1095C 1015.51,1095.5 1008.51,1095.67 1001.5,1095.5C 1001.33,1101.18 1001.5,1106.84 1002,1112.5C 1002.27,1114.1 1002.77,1115.6 1003.5,1117C 1013.17,1117.33 1022.83,1117.67 1032.5,1118C 1039.63,1121.64 1043.3,1127.47 1043.5,1135.5C 1030.16,1135.33 1016.83,1135.5 1003.5,1136C 1001.99,1136.85 1000.49,1137.68 999,1138.5C 992,1134.92 984.833,1131.75 977.5,1129C 975.759,1127.38 973.925,1125.88 972,1124.5C 972.314,1099.91 972.647,1075.25 973,1050.5C 973.53,1047.42 975.03,1045.08 977.5,1043.5 Z"/></g>
<g><path style="opacity:1" fill="#060606" d="M 1198.5,1043.5 C 1217.2,1043.1 1235.87,1043.6 1254.5,1045C 1266.86,1056.45 1264.86,1060.61 1248.5,1057.5C 1248.5,1058.5 1248.5,1059.5 1248.5,1060.5C 1238.83,1060.5 1229.17,1060.5 1219.5,1060.5C 1220.07,1066.86 1220.9,1073.19 1222,1079.5C 1222.5,1080 1223,1080.5 1223.5,1081C 1228.5,1081.33 1233.5,1081.67 1238.5,1082C 1243.44,1083.28 1246.78,1086.28 1248.5,1091C 1247.74,1093.42 1246.07,1094.76 1243.5,1095C 1236.51,1095.5 1229.51,1095.67 1222.5,1095.5C 1222.33,1101.18 1222.5,1106.84 1223,1112.5C 1223.27,1114.1 1223.77,1115.6 1224.5,1117C 1234.17,1117.33 1243.83,1117.67 1253.5,1118C 1260.63,1121.64 1264.3,1127.47 1264.5,1135.5C 1251.16,1135.33 1237.83,1135.5 1224.5,1136C 1222.99,1136.85 1221.49,1137.68 1220,1138.5C 1213,1134.92 1205.83,1131.75 1198.5,1129C 1196.76,1127.38 1194.93,1125.88 1193,1124.5C 1193.31,1099.91 1193.65,1075.25 1194,1050.5C 1194.53,1047.42 1196.03,1045.08 1198.5,1043.5 Z"/></g>
<g><path style="opacity:1" fill="#040404" d="M 1325.5,1088.5 C 1325.56,1089.04 1325.89,1089.38 1326.5,1089.5C 1327.5,1077.18 1327.83,1064.85 1327.5,1052.5C 1327.5,1050.83 1327.5,1049.17 1327.5,1047.5C 1333.91,1046.79 1338.74,1049.12 1342,1054.5C 1344.08,1067.41 1344.91,1080.41 1344.5,1093.5C 1344.83,1109.34 1344.5,1125.01 1343.5,1140.5C 1335.25,1137.48 1327.25,1133.98 1319.5,1130C 1309.64,1117.79 1300.64,1104.95 1292.5,1091.5C 1292.22,1090.71 1291.72,1090.04 1291,1089.5C 1290.5,1096.49 1290.33,1103.49 1290.5,1110.5C 1290.83,1119.86 1290.5,1129.19 1289.5,1138.5C 1283.89,1136.36 1278.55,1133.69 1273.5,1130.5C 1272.68,1101.81 1273.01,1073.15 1274.5,1044.5C 1282.52,1045.9 1290.52,1047.4 1298.5,1049C 1309.31,1060.97 1318.31,1074.13 1325.5,1088.5 Z"/></g>
<g><path style="opacity:1" fill="#060606" d="M 1441.5,1043.5 C 1460.2,1043.1 1478.87,1043.6 1497.5,1045C 1509.86,1056.45 1507.86,1060.61 1491.5,1057.5C 1491.5,1058.5 1491.5,1059.5 1491.5,1060.5C 1481.83,1060.5 1472.17,1060.5 1462.5,1060.5C 1463.07,1066.86 1463.9,1073.19 1465,1079.5C 1465.5,1080 1466,1080.5 1466.5,1081C 1471.5,1081.33 1476.5,1081.67 1481.5,1082C 1486.44,1083.28 1489.78,1086.28 1491.5,1091C 1490.74,1093.42 1489.07,1094.76 1486.5,1095C 1479.51,1095.5 1472.51,1095.67 1465.5,1095.5C 1465.33,1101.18 1465.5,1106.84 1466,1112.5C 1466.27,1114.1 1466.77,1115.6 1467.5,1117C 1477.17,1117.33 1486.83,1117.67 1496.5,1118C 1503.63,1121.64 1507.3,1127.47 1507.5,1135.5C 1494.16,1135.33 1480.83,1135.5 1467.5,1136C 1465.99,1136.85 1464.49,1137.68 1463,1138.5C 1456,1134.92 1448.83,1131.75 1441.5,1129C 1439.76,1127.38 1437.93,1125.88 1436,1124.5C 1436.31,1099.91 1436.65,1075.25 1437,1050.5C 1437.53,1047.42 1439.03,1045.08 1441.5,1043.5 Z"/></g>
<g><path style="opacity:1" fill="#080808" d="M 1162.5,1044.5 C 1168.66,1044.67 1173.5,1047.33 1177,1052.5C 1179.19,1080.17 1181.36,1107.84 1183.5,1135.5C 1177.89,1135.19 1172.56,1133.85 1167.5,1131.5C 1167.5,1132.83 1167.5,1134.17 1167.5,1135.5C 1160.79,1136.73 1155.29,1134.73 1151,1129.5C 1150.18,1102.82 1150.51,1076.15 1152,1049.5C 1155.15,1047.64 1158.65,1046.97 1162.5,1047.5C 1162.5,1046.5 1162.5,1045.5 1162.5,1044.5 Z"/></g>
<g><path style="opacity:1" fill="#f8f8f8" d="M 910.5,1053.5 C 921.637,1054.13 928.304,1059.97 930.5,1071C 928.981,1082.37 922.981,1090.53 912.5,1095.5C 909.919,1081.54 909.252,1067.54 910.5,1053.5 Z"/></g>
<g><path style="opacity:1" fill="#fafafa" d="M 1081.5,1085.5 C 1080.83,1082.5 1080.17,1079.5 1079.5,1076.5C 1079.19,1069.91 1079.52,1063.41 1080.5,1057C 1089.87,1055.1 1098.37,1056.93 1106,1062.5C 1108.25,1066.67 1107.42,1070.17 1103.5,1073C 1097.39,1077.39 1090.72,1080.72 1083.5,1083C 1082.62,1083.71 1081.95,1084.54 1081.5,1085.5 Z"/></g>
<g><path style="opacity:1" fill="#514e4e" d="M 1327.5,1052.5 C 1327.83,1064.85 1327.5,1077.18 1326.5,1089.5C 1325.89,1089.38 1325.56,1089.04 1325.5,1088.5C 1326.17,1076.5 1326.83,1064.5 1327.5,1052.5 Z"/></g>
<g><path style="opacity:1" fill="#646161" d="M 1079.5,1076.5 C 1080.17,1079.5 1080.83,1082.5 1081.5,1085.5C 1081.44,1086.04 1081.11,1086.38 1080.5,1086.5C 1079.51,1083.23 1079.18,1079.9 1079.5,1076.5 Z"/></g>
<g><path style="opacity:1" fill="#9e907f" d="M 1612.5,1084.5 C 1610.21,1086.27 1607.54,1087.27 1604.5,1087.5C 1606.79,1085.73 1609.46,1084.73 1612.5,1084.5 Z"/></g>
<g><path style="opacity:1" fill="#a7a4a4" d="M 1292.5,1091.5 C 1291.83,1097.83 1291.17,1104.17 1290.5,1110.5C 1290.33,1103.49 1290.5,1096.49 1291,1089.5C 1291.72,1090.04 1292.22,1090.71 1292.5,1091.5 Z"/></g>
<g><path style="opacity:1" fill="#a29f9f" d="M 1344.5,1093.5 C 1345.83,1109.34 1345.83,1125.34 1344.5,1141.5C 1343.89,1141.38 1343.56,1141.04 1343.5,1140.5C 1344.5,1125.01 1344.83,1109.34 1344.5,1093.5 Z"/></g>
<g><path style="opacity:1" fill="#75706c" d="M 1745.5,1192.5 C 1746.83,1192.5 1748.17,1192.5 1749.5,1192.5C 1749.5,1193.83 1749.5,1195.17 1749.5,1196.5C 1747.59,1196.78 1745.92,1196.45 1744.5,1195.5C 1749.27,1195.33 1749.61,1194.33 1745.5,1192.5 Z"/></g>
<g><path style="opacity:0.004" fill="#f89d1b" d="M 1520.5,1200.5 C 1521.83,1201.17 1521.83,1201.17 1520.5,1200.5 Z"/></g>
<g><path style="opacity:0.007" fill="#f89d1b" d="M 1563.5,1202.5 C 1565.83,1202.5 1568.17,1202.5 1570.5,1202.5C 1570.5,1203.5 1570.5,1204.5 1570.5,1205.5C 1566.77,1206.3 1563.1,1207.3 1559.5,1208.5C 1560.43,1207.69 1561.43,1206.85 1562.5,1206C 1562.17,1205.67 1561.83,1205.33 1561.5,1205C 1562.38,1204.29 1563.05,1203.46 1563.5,1202.5 Z"/></g>
<g><path style="opacity:0.004" fill="#f89d1b" d="M 1559.5,1208.5 C 1558.83,1209.17 1558.83,1209.17 1559.5,1208.5 Z"/></g>
<g><path style="opacity:0.004" fill="#000000" d="M 1448.5,1209.5 C 1449.53,1209.9 1449.69,1210.56 1449,1211.5C 1448.54,1210.91 1448.37,1210.24 1448.5,1209.5 Z"/></g>
<g><path style="opacity:0.004" fill="#000000" d="M 1449.5,1212.5 C 1450.53,1212.9 1450.69,1213.56 1450,1214.5C 1449.54,1213.91 1449.37,1213.24 1449.5,1212.5 Z"/></g>
<g><path style="opacity:0.004" fill="#000000" d="M 1459.5,1213.5 C 1460.83,1214.17 1460.83,1214.17 1459.5,1213.5 Z"/></g>
<g><path style="opacity:0.004" fill="#000000" d="M 1475.5,1213.5 C 1477.34,1213.64 1477.67,1214.31 1476.5,1215.5C 1475.7,1215.04 1475.37,1214.38 1475.5,1213.5 Z"/></g>
<g><path style="opacity:0.004" fill="#000000" d="M 1452.5,1215.5 C 1452.9,1214.47 1453.56,1214.31 1454.5,1215C 1453.91,1215.46 1453.24,1215.63 1452.5,1215.5 Z"/></g>
<g><path style="opacity:0.004" fill="#000000" d="M 1457.5,1215.5 C 1459.34,1215.64 1459.67,1216.31 1458.5,1217.5C 1457.7,1217.04 1457.37,1216.38 1457.5,1215.5 Z"/></g>
<g><path style="opacity:0.004" fill="#000000" d="M 1464.5,1215.5 C 1465.83,1216.17 1465.83,1216.17 1464.5,1215.5 Z"/></g>
<g><path style="opacity:0.004" fill="#f89d1b" d="M 1549.5,1215.5 C 1550.83,1216.17 1550.83,1216.17 1549.5,1215.5 Z"/></g>
<g><path style="opacity:0.004" fill="#000000" d="M 1465.5,1217.5 C 1466.68,1217.28 1467.68,1217.61 1468.5,1218.5C 1466.95,1219.8 1465.95,1219.46 1465.5,1217.5 Z"/></g>
<g><path style="opacity:0.004" fill="#000000" d="M 1472.5,1217.5 C 1474.62,1218.85 1474.45,1220.52 1472,1222.5C 1472.02,1220.89 1472.19,1219.23 1472.5,1217.5 Z"/></g>
<g><path style="opacity:0.004" fill="#000000" d="M 1457.5,1219.5 C 1456.83,1218.17 1456.83,1218.17 1457.5,1219.5 Z"/></g>
<g><path style="opacity:0.004" fill="#000000" d="M 1458.5,1219.5 C 1458.9,1218.47 1459.56,1218.31 1460.5,1219C 1459.91,1219.46 1459.24,1219.63 1458.5,1219.5 Z"/></g>
<g><path style="opacity:0.004" fill="#000000" d="M 1457.5,1219.5 C 1457.83,1219.5 1458.17,1219.5 1458.5,1219.5C 1458.17,1222.17 1457.83,1222.17 1457.5,1219.5 Z"/></g>
<g><path style="opacity:0.004" fill="#000000" d="M 1475.5,1219.5 C 1476.53,1219.9 1476.69,1220.56 1476,1221.5C 1475.54,1220.91 1475.37,1220.24 1475.5,1219.5 Z"/></g>
<g><path style="opacity:0.004" fill="#000000" d="M 1486.5,1219.5 C 1487.53,1219.9 1487.69,1220.56 1487,1221.5C 1486.54,1220.91 1486.37,1220.24 1486.5,1219.5 Z"/></g>
<g><path style="opacity:0.004" fill="#000000" d="M 1469.5,1223.5 C 1468.43,1222.75 1468.26,1221.75 1469,1220.5C 1469.48,1221.45 1469.65,1222.45 1469.5,1223.5 Z"/></g>
<g><path style="opacity:0.004" fill="#000000" d="M 1492.5,1221.5 C 1492.9,1220.47 1493.56,1220.31 1494.5,1221C 1493.91,1221.46 1493.24,1221.63 1492.5,1221.5 Z"/></g>
<g><path style="opacity:0.004" fill="#000000" d="M 1501.5,1220.5 C 1502.53,1220.9 1502.69,1221.56 1502,1222.5C 1501.54,1221.91 1501.37,1221.24 1501.5,1220.5 Z"/></g>
<g><path style="opacity:0.004" fill="#000000" d="M 1463.5,1221.5 C 1464.83,1222.17 1464.83,1222.17 1463.5,1221.5 Z"/></g>
<g><path style="opacity:0.004" fill="#000000" d="M 1477.5,1221.5 C 1478.83,1222.17 1478.83,1222.17 1477.5,1221.5 Z"/></g>
<g><path style="opacity:0.004" fill="#000000" d="M 1490.5,1221.5 C 1491.04,1221.56 1491.38,1221.89 1491.5,1222.5C 1490.64,1223.58 1489.64,1223.75 1488.5,1223C 1489.42,1222.72 1490.08,1222.22 1490.5,1221.5 Z"/></g>
<g><path style="opacity:0.004" fill="#000000" d="M 1458.5,1222.5 C 1459.83,1223.17 1459.83,1223.17 1458.5,1222.5 Z"/></g>
<g><path style="opacity:0.004" fill="#000000" d="M 1465.5,1222.5 C 1467.33,1223.14 1467.67,1224.14 1466.5,1225.5C 1465.61,1224.68 1465.28,1223.68 1465.5,1222.5 Z"/></g>
<g><path style="opacity:0.004" fill="#000000" d="M 1485.5,1225.5 C 1483.15,1226.59 1481.15,1225.92 1479.5,1223.5C 1480.87,1222.41 1482.03,1222.74 1483,1224.5C 1483.31,1223.69 1483.81,1223.03 1484.5,1222.5C 1484.52,1223.39 1484.85,1224.39 1485.5,1225.5 Z"/></g>
<g><path style="opacity:0.004" fill="#000000" d="M 1494.5,1224.5 C 1494.64,1222.66 1495.31,1222.33 1496.5,1223.5C 1496.04,1224.3 1495.38,1224.63 1494.5,1224.5 Z"/></g>
<g><path style="opacity:0.004" fill="#000000" d="M 1469.5,1223.5 C 1471.69,1223.51 1472.52,1224.51 1472,1226.5C 1470.96,1225.63 1470.12,1224.63 1469.5,1223.5 Z"/></g>
<g><path style="opacity:0.004" fill="#000000" d="M 1494.5,1224.5 C 1493.92,1225.77 1493.26,1225.77 1492.5,1224.5C 1492.97,1223.54 1493.64,1223.54 1494.5,1224.5 Z"/></g>
<g><path style="opacity:0.004" fill="#000000" d="M 1455.5,1225.5 C 1456.08,1224.23 1456.74,1224.23 1457.5,1225.5C 1457.03,1226.46 1456.36,1226.46 1455.5,1225.5 Z"/></g>
<g><path style="opacity:0.004" fill="#000000" d="M 1475.5,1228.5 C 1473.73,1227.69 1473.23,1226.35 1474,1224.5C 1475.1,1225.97 1476.6,1226.8 1478.5,1227C 1477.26,1227.23 1476.26,1227.73 1475.5,1228.5 Z"/></g>
<g><path style="opacity:0.005" fill="#080808" d="M 1503.5,1227.5 C 1503.83,1227.5 1504.17,1227.5 1504.5,1227.5C 1504.13,1230.08 1504.13,1232.41 1504.5,1234.5C 1503.43,1235.43 1502.1,1235.77 1500.5,1235.5C 1500.16,1234.66 1499.49,1234.33 1498.5,1234.5C 1497.83,1234.5 1497.17,1234.5 1496.5,1234.5C 1496.17,1233.17 1495.83,1233.17 1495.5,1234.5C 1494.83,1234.5 1494.17,1234.5 1493.5,1234.5C 1492.5,1234.5 1491.5,1234.5 1490.5,1234.5C 1488.21,1233.31 1485.87,1233.31 1483.5,1234.5C 1484.53,1232.82 1485.53,1231.15 1486.5,1229.5C 1490.14,1228.73 1489.81,1228.07 1485.5,1227.5C 1485.5,1226.83 1485.5,1226.17 1485.5,1225.5C 1486.5,1225.59 1487.33,1225.25 1488,1224.5C 1489.73,1226.23 1491.07,1228.23 1492,1230.5C 1494.33,1227.83 1496.67,1227.83 1499,1230.5C 1499.33,1229.83 1499.67,1229.17 1500,1228.5C 1501.05,1234.71 1502.22,1234.38 1503.5,1227.5 Z"/></g>
<g><path style="opacity:0.004" fill="#000000" d="M 1498.5,1224.5 C 1499.83,1225.17 1499.83,1225.17 1498.5,1224.5 Z"/></g>
<g><path style="opacity:0.004" fill="#000000" d="M 1516.5,1224.5 C 1517.53,1224.9 1517.69,1225.56 1517,1226.5C 1516.54,1225.91 1516.37,1225.24 1516.5,1224.5 Z"/></g>
<g><path style="opacity:0.004" fill="#000000" d="M 1458.5,1225.5 C 1459.53,1225.9 1459.69,1226.56 1459,1227.5C 1458.54,1226.91 1458.37,1226.24 1458.5,1225.5 Z"/></g>
<g><path style="opacity:0.005" fill="#000000" d="M 1470.5,1228.5 C 1467.45,1228.51 1466.95,1227.51 1469,1225.5C 1470.04,1226.24 1470.54,1227.24 1470.5,1228.5 Z"/></g>
<g><path style="opacity:0.004" fill="#000000" d="M 1479.5,1225.5 C 1480.53,1225.9 1480.69,1226.56 1480,1227.5C 1479.54,1226.91 1479.37,1226.24 1479.5,1225.5 Z"/></g>
<g><path style="opacity:0.004" fill="#000000" d="M 1504.5,1227.5 C 1504.64,1225.66 1505.31,1225.33 1506.5,1226.5C 1506.04,1227.3 1505.38,1227.63 1504.5,1227.5 Z"/></g>
<g><path style="opacity:0.004" fill="#000000" d="M 1503.5,1227.5 C 1502.83,1226.17 1502.83,1226.17 1503.5,1227.5 Z"/></g>
<g><path style="opacity:0.004" fill="#000000" d="M 1508.5,1226.5 C 1509.53,1226.9 1509.69,1227.56 1509,1228.5C 1508.54,1227.91 1508.37,1227.24 1508.5,1226.5 Z"/></g>
<g><path style="opacity:0.004" fill="#000000" d="M 1485.5,1227.5 C 1485.83,1228.17 1486.17,1228.83 1486.5,1229.5C 1484.83,1229.75 1483.33,1230.42 1482,1231.5C 1481.42,1233 1481.92,1234 1483.5,1234.5C 1481.87,1236.2 1482.2,1237.2 1484.5,1237.5C 1483.79,1238.4 1482.79,1238.74 1481.5,1238.5C 1481.63,1235.39 1480.29,1233.39 1477.5,1232.5C 1476.4,1231.4 1475.73,1230.06 1475.5,1228.5C 1476.72,1229.03 1477.89,1229.69 1479,1230.5C 1481.12,1229.82 1483.28,1228.82 1485.5,1227.5 Z"/></g>
<g><path style="opacity:0.004" fill="#000000" d="M 1470.5,1228.5 C 1471.53,1228.9 1471.69,1229.56 1471,1230.5C 1470.54,1229.91 1470.37,1229.24 1470.5,1228.5 Z"/></g>
<g><path style="opacity:0.004" fill="#000000" d="M 1514.5,1228.5 C 1515.83,1229.17 1515.83,1229.17 1514.5,1228.5 Z"/></g>
<g><path style="opacity:0.004" fill="#000000" d="M 1518.5,1230.5 C 1517.47,1230.1 1517.31,1229.44 1518,1228.5C 1518.46,1229.09 1518.63,1229.76 1518.5,1230.5 Z"/></g>
<g><path style="opacity:0.004" fill="#000000" d="M 1465.5,1229.5 C 1466.53,1229.9 1466.69,1230.56 1466,1231.5C 1465.54,1230.91 1465.37,1230.24 1465.5,1229.5 Z"/></g>
<g><path style="opacity:0.004" fill="#0c0c0c" d="M 1515.5,1232.5 C 1517.18,1232.71 1518.18,1232.05 1518.5,1230.5C 1520.38,1230.39 1520.71,1230.89 1519.5,1232C 1520.76,1232.42 1521.42,1233.25 1521.5,1234.5C 1520.66,1234.84 1520.33,1235.51 1520.5,1236.5C 1517.83,1236.5 1515.17,1236.5 1512.5,1236.5C 1512.5,1235.83 1512.17,1235.5 1511.5,1235.5C 1510.39,1235.44 1509.39,1235.11 1508.5,1234.5C 1507.83,1234.5 1507.5,1234.83 1507.5,1235.5C 1507.17,1235.5 1506.83,1235.5 1506.5,1235.5C 1505.83,1235.5 1505.5,1235.17 1505.5,1234.5C 1505.21,1232.71 1505.55,1231.05 1506.5,1229.5C 1506.97,1232.42 1508.97,1233.92 1512.5,1234C 1507.5,1229 1507.84,1228.66 1513.5,1233C 1514.44,1233.69 1515.1,1233.53 1515.5,1232.5 Z M 1517.5,1233.5 C 1519.34,1233.64 1519.67,1234.31 1518.5,1235.5C 1517.7,1235.04 1517.37,1234.38 1517.5,1233.5 Z"/></g>
<g><path style="opacity:0.004" fill="#000000" d="M 1467.5,1230.5 C 1469.34,1230.64 1469.67,1231.31 1468.5,1232.5C 1467.7,1232.04 1467.37,1231.38 1467.5,1230.5 Z"/></g>
<g><path style="opacity:0.004" fill="#000000" d="M 1474.5,1231.5 C 1475.77,1232.08 1475.77,1232.74 1474.5,1233.5C 1473.54,1233.03 1473.54,1232.36 1474.5,1231.5 Z"/></g>
<g><path style="opacity:0.004" fill="#000000" d="M 1515.5,1232.5 C 1514.83,1231.17 1514.83,1231.17 1515.5,1232.5 Z"/></g>
<g><path style="opacity:0.004" fill="#000000" d="M 1470.5,1232.5 C 1471.83,1233.17 1471.83,1233.17 1470.5,1232.5 Z"/></g>
<g><path style="opacity:0.004" fill="#000000" d="M 1477.5,1232.5 C 1476.83,1233.17 1476.83,1233.17 1477.5,1232.5 Z"/></g>
<g><path style="opacity:0.004" fill="#000000" d="M 1531.5,1233.5 C 1532.08,1232.23 1532.74,1232.23 1533.5,1233.5C 1533.03,1234.46 1532.36,1234.46 1531.5,1233.5 Z"/></g>
<g><path style="opacity:0.004" fill="#000000" d="M 1539.5,1233.5 C 1540.83,1234.17 1540.83,1234.17 1539.5,1233.5 Z"/></g>
<g><path style="opacity:0.004" fill="#030303" d="M 1521.5,1234.5 C 1522.79,1234.26 1523.79,1234.6 1524.5,1235.5C 1523.51,1235.33 1522.84,1235.66 1522.5,1236.5C 1522.17,1236.5 1521.83,1236.5 1521.5,1236.5C 1521.5,1235.83 1521.5,1235.17 1521.5,1234.5 Z"/></g>
<g><path style="opacity:0.004" fill="#000000" d="M 1476.5,1235.5 C 1477.83,1236.17 1477.83,1236.17 1476.5,1235.5 Z"/></g>
<g><path style="opacity:0.006" fill="#f0efef" d="M 1490.5,1234.5 C 1491.5,1234.5 1492.5,1234.5 1493.5,1234.5C 1494.17,1235.83 1494.83,1235.83 1495.5,1234.5C 1495.83,1234.5 1496.17,1234.5 1496.5,1234.5C 1497.17,1234.5 1497.83,1234.5 1498.5,1234.5C 1498.71,1236.42 1499.38,1236.76 1500.5,1235.5C 1502.1,1235.77 1503.43,1235.43 1504.5,1234.5C 1504.83,1234.5 1505.17,1234.5 1505.5,1234.5C 1505.5,1235.17 1505.83,1235.5 1506.5,1235.5C 1506.83,1236.83 1507.17,1236.83 1507.5,1235.5C 1508.17,1235.5 1508.5,1235.17 1508.5,1234.5C 1509.39,1235.11 1510.39,1235.44 1511.5,1235.5C 1512.17,1235.5 1512.5,1235.83 1512.5,1236.5C 1515.17,1236.5 1517.83,1236.5 1520.5,1236.5C 1520.83,1236.5 1521.17,1236.5 1521.5,1236.5C 1521.83,1236.5 1522.17,1236.5 1522.5,1236.5C 1523.17,1236.83 1523.83,1237.17 1524.5,1237.5C 1525.17,1237.5 1525.83,1237.5 1526.5,1237.5C 1527.17,1238.83 1527.83,1238.83 1528.5,1237.5C 1529.17,1237.5 1529.83,1237.5 1530.5,1237.5C 1530.83,1238.83 1531.17,1238.83 1531.5,1237.5C 1531.83,1237.5 1532.17,1237.5 1532.5,1237.5C 1533.79,1237.74 1534.79,1237.4 1535.5,1236.5C 1536.4,1237.21 1536.74,1238.21 1536.5,1239.5C 1535.18,1239.67 1534.01,1239.34 1533,1238.5C 1532.8,1240.15 1533.64,1241.15 1535.5,1241.5C 1534.54,1244.12 1533.38,1244.12 1532,1241.5C 1524.88,1242.57 1517.72,1242.57 1510.5,1241.5C 1502.2,1240.66 1494.2,1239.33 1486.5,1237.5C 1487.74,1236.34 1489.07,1235.34 1490.5,1234.5 Z M 1498.5,1234.5 C 1499.49,1234.33 1500.16,1234.66 1500.5,1235.5C 1499.38,1236.76 1498.71,1236.42 1498.5,1234.5 Z"/></g>
<g><path style="opacity:0.004" fill="#000000" d="M 1535.5,1236.5 C 1534.83,1235.17 1534.83,1235.17 1535.5,1236.5 Z"/></g>
<g><path style="opacity:0.004" fill="#737070" d="M 1486.5,1237.5 C 1485.83,1237.5 1485.17,1237.5 1484.5,1237.5C 1485.17,1234.83 1485.83,1234.83 1486.5,1237.5 Z"/></g>
<g><path style="opacity:0.004" fill="#343433" d="M 1524.5,1235.5 C 1525.83,1235.5 1526.5,1236.17 1526.5,1237.5C 1525.83,1237.5 1525.17,1237.5 1524.5,1237.5C 1524.5,1236.83 1524.5,1236.17 1524.5,1235.5 Z"/></g>
<g><path style="opacity:0.004" fill="#141414" d="M 1531.5,1233.5 C 1531.43,1234.96 1531.77,1236.29 1532.5,1237.5C 1532.17,1237.5 1531.83,1237.5 1531.5,1237.5C 1531.17,1237.5 1530.83,1237.5 1530.5,1237.5C 1529.83,1237.5 1529.17,1237.5 1528.5,1237.5C 1527.23,1235.7 1527.57,1235.37 1529.5,1236.5C 1530.18,1235.4 1530.84,1234.4 1531.5,1233.5 Z"/></g>
<g><path style="opacity:0.004" fill="#000000" d="M 1545.5,1236.5 C 1546.83,1237.17 1546.83,1237.17 1545.5,1236.5 Z"/></g>
<g><path style="opacity:0.004" fill="#262626" d="M 1539.5,1238.5 C 1538.83,1238.5 1538.17,1238.5 1537.5,1238.5C 1538.17,1235.83 1538.83,1235.83 1539.5,1238.5 Z"/></g>
<g><path style="opacity:0.004" fill="#868281" d="M 1542.5,1239.5 C 1543.08,1238.23 1543.74,1238.23 1544.5,1239.5C 1544.03,1240.46 1543.36,1240.46 1542.5,1239.5 Z"/></g>
<g><path style="opacity:0.005" fill="#fbfbfb" d="M 1537.5,1238.5 C 1538.17,1238.5 1538.83,1238.5 1539.5,1238.5C 1539.92,1239.22 1540.58,1239.72 1541.5,1240C 1540.14,1242.13 1540.47,1242.63 1542.5,1241.5C 1543.31,1241.81 1543.97,1242.31 1544.5,1243C 1541.16,1243.91 1538.16,1243.41 1535.5,1241.5C 1535.83,1240.83 1536.17,1240.17 1536.5,1239.5C 1537.17,1239.5 1537.5,1239.17 1537.5,1238.5 Z"/></g>
<g><path style="opacity:0.004" fill="#242423" d="M 1553.5,1240.5 C 1554.08,1239.23 1554.74,1239.23 1555.5,1240.5C 1555.03,1241.46 1554.36,1241.46 1553.5,1240.5 Z"/></g>
<g><path style="opacity:0.004" fill="#fefffe" d="M 1545.5,1241.5 C 1545.9,1240.47 1546.56,1240.31 1547.5,1241C 1546.91,1241.46 1546.24,1241.63 1545.5,1241.5 Z"/></g>
<g><path style="opacity:0.004" fill="#fefffe" d="M 1548.5,1241.5 C 1550.46,1241.95 1550.8,1242.95 1549.5,1244.5C 1548.61,1243.68 1548.28,1242.68 1548.5,1241.5 Z"/></g>
<g><path style="opacity:0.004" fill="#fefffe" d="M 1546.5,1242.5 C 1547.53,1242.9 1547.69,1243.56 1547,1244.5C 1546.54,1243.91 1546.37,1243.24 1546.5,1242.5 Z"/></g>
<g><path style="opacity:0.004" fill="#fefffe" d="M 1552.5,1243.5 C 1553.83,1244.17 1553.83,1244.17 1552.5,1243.5 Z"/></g>
<g><path style="opacity:0.004" fill="#fefffe" d="M 1557.5,1243.5 C 1558.53,1243.9 1558.69,1244.56 1558,1245.5C 1557.54,1244.91 1557.37,1244.24 1557.5,1243.5 Z"/></g>
<g><path style="opacity:0.98" fill="#020202" d="M 1644.5,1245.5 C 1657.07,1245.64 1668.24,1249.64 1678,1257.5C 1682.16,1253 1687.33,1250.5 1693.5,1250C 1712.17,1249.33 1730.83,1249.33 1749.5,1250C 1761.78,1252.27 1770.61,1259.1 1776,1270.5C 1782.55,1287.2 1777.38,1298.36 1760.5,1304C 1764.67,1311.36 1765.34,1319.03 1762.5,1327C 1772.67,1334.69 1779.01,1344.86 1781.5,1357.5C 1781.27,1370.58 1774.61,1378.41 1761.5,1381C 1746.28,1381.8 1731.12,1382.97 1716,1384.5C 1704.88,1382.02 1694.38,1378.02 1684.5,1372.5C 1679.24,1376.65 1673.24,1379.15 1666.5,1380C 1659.43,1380.95 1652.43,1382.28 1645.5,1384C 1632.47,1384.41 1620.47,1381.08 1609.5,1374C 1605.01,1366.18 1601.17,1358.01 1598,1349.5C 1592.1,1357.87 1583.93,1362.2 1573.5,1362.5C 1565.7,1374.5 1554.87,1378.5 1541,1374.5C 1522.06,1382.08 1507.39,1377.08 1497,1359.5C 1496.12,1356.21 1495.45,1352.88 1495,1349.5C 1483.96,1340.37 1480.62,1329.04 1485,1315.5C 1486.67,1312.5 1489,1310.17 1492,1308.5C 1493.38,1299.55 1498.21,1293.38 1506.5,1290C 1513.38,1288.18 1520.38,1287.18 1527.5,1287C 1531.98,1278.69 1537.65,1271.35 1544.5,1265C 1547.98,1264.09 1551.48,1263.25 1555,1262.5C 1558,1263.17 1561,1263.83 1564,1264.5C 1568.48,1263.42 1572.98,1262.42 1577.5,1261.5C 1582.6,1263.29 1586.93,1262.12 1590.5,1258C 1600.31,1255.26 1610.31,1253.93 1620.5,1254C 1628.2,1249.98 1636.2,1247.14 1644.5,1245.5 Z"/></g>
<g><path style="opacity:1" fill="#fbfbfb" d="M 1641.5,1266.5 C 1654.2,1266.1 1664.7,1270.76 1673,1280.5C 1673.92,1282.03 1674.42,1283.7 1674.5,1285.5C 1673.71,1289.22 1672.71,1292.88 1671.5,1296.5C 1672.05,1298.13 1672.38,1299.8 1672.5,1301.5C 1662.57,1298.93 1655.24,1292.93 1650.5,1283.5C 1645.76,1281.55 1643.43,1283.22 1643.5,1288.5C 1647.24,1303.48 1655.91,1314.64 1669.5,1322C 1682.75,1334.1 1682.75,1346.1 1669.5,1358C 1661.88,1359.85 1654.21,1361.52 1646.5,1363C 1641.08,1363.84 1635.75,1363.51 1630.5,1362C 1623.91,1358.79 1617.75,1354.96 1612,1350.5C 1610.77,1348.13 1609.93,1345.63 1609.5,1343C 1610.97,1339.66 1611.64,1336.16 1611.5,1332.5C 1616.42,1332.29 1620.75,1333.79 1624.5,1337C 1627.98,1340.3 1630.98,1343.97 1633.5,1348C 1639.08,1349.47 1643.91,1348.3 1648,1344.5C 1648.67,1342.83 1648.67,1341.17 1648,1339.5C 1638.63,1330.46 1628.96,1321.8 1619,1313.5C 1609.48,1297.78 1612.31,1284.62 1627.5,1274C 1632.1,1271.2 1636.77,1268.7 1641.5,1266.5 Z"/></g>
<g><path style="opacity:1" fill="#f9f9f9" d="M 1694.5,1269.5 C 1712.17,1269.33 1729.84,1269.5 1747.5,1270C 1753.56,1272.56 1757.23,1277.06 1758.5,1283.5C 1753.83,1283.5 1749.17,1283.5 1744.5,1283.5C 1744.5,1284.5 1744.5,1285.5 1744.5,1286.5C 1734.83,1286.5 1725.17,1286.5 1715.5,1286.5C 1715.52,1293.34 1716.52,1300.01 1718.5,1306.5C 1724.51,1307.16 1730.51,1307.99 1736.5,1309C 1741.65,1310.71 1743.99,1314.04 1743.5,1319C 1741.29,1320.04 1738.95,1320.71 1736.5,1321C 1730.51,1321.5 1724.51,1321.67 1718.5,1321.5C 1718.33,1327.51 1718.5,1333.51 1719,1339.5C 1719.31,1340.77 1719.81,1341.93 1720.5,1343C 1730.73,1344.29 1741.07,1344.95 1751.5,1345C 1755.61,1348.11 1758.61,1352.11 1760.5,1357C 1759.79,1358.42 1759.46,1359.76 1759.5,1361C 1743.66,1361.12 1727.99,1361.79 1712.5,1363C 1707.39,1360.11 1702.06,1357.78 1696.5,1356C 1693.51,1354.01 1690.85,1351.68 1688.5,1349C 1689.33,1324.91 1689.83,1300.74 1690,1276.5C 1690.9,1273.77 1692.4,1271.43 1694.5,1269.5 Z"/></g>
<g><path style="opacity:1" fill="#fafafa" d="M 1575.5,1282.5 C 1579.94,1281.7 1582.61,1283.37 1583.5,1287.5C 1582.1,1293.7 1580.1,1299.7 1577.5,1305.5C 1582.13,1306.33 1586.8,1306.83 1591.5,1307C 1593.25,1307.47 1594.91,1308.14 1596.5,1309C 1598.92,1312.35 1600.92,1315.85 1602.5,1319.5C 1591.81,1319.17 1581.15,1319.5 1570.5,1320.5C 1569.6,1323.04 1568.6,1325.54 1567.5,1328C 1570.21,1330.03 1573.21,1331.7 1576.5,1333C 1577.67,1334.17 1578.83,1335.33 1580,1336.5C 1580.68,1337.78 1580.52,1338.95 1579.5,1340C 1573.47,1340.17 1567.47,1340.67 1561.5,1341.5C 1559.08,1345.34 1556.91,1349.34 1555,1353.5C 1550.02,1356.67 1546.02,1355.67 1543,1350.5C 1542.47,1346.57 1543.31,1342.9 1545.5,1339.5C 1543.58,1338.36 1541.58,1338.19 1539.5,1339C 1535.62,1344.58 1532.12,1350.42 1529,1356.5C 1528.2,1357.8 1527.03,1358.47 1525.5,1358.5C 1521.05,1356.88 1517.72,1354.04 1515.5,1350C 1517.49,1346.35 1519.49,1342.68 1521.5,1339C 1517.49,1337.88 1513.49,1336.54 1509.5,1335C 1506.68,1332.36 1504.35,1329.36 1502.5,1326C 1511.53,1325.96 1520.53,1325.8 1529.5,1325.5C 1531.08,1323.02 1532.08,1320.35 1532.5,1317.5C 1527.82,1317.67 1523.15,1317.5 1518.5,1317C 1514.98,1315.52 1513.15,1313.02 1513,1309.5C 1521.47,1308.39 1529.97,1307.23 1538.5,1306C 1544.12,1299.27 1549.12,1292.1 1553.5,1284.5C 1556.78,1282.83 1558.78,1283.83 1559.5,1287.5C 1557.42,1293.41 1555.75,1299.41 1554.5,1305.5C 1558.29,1306.19 1561.45,1305.19 1564,1302.5C 1568.06,1295.95 1571.89,1289.28 1575.5,1282.5 Z"/></g>
<g><path style="opacity:1" fill="#1a1919" d="M 1549.5,1317.5 C 1551.17,1317.5 1552.83,1317.5 1554.5,1317.5C 1554.96,1322.7 1552.79,1326.03 1548,1327.5C 1546.6,1327.49 1545.43,1326.99 1544.5,1326C 1545.53,1322.76 1547.2,1319.93 1549.5,1317.5 Z"/></g>
<g><path style="opacity:0.004" fill="#000000" d="M 1334.5,1358.5 C 1333.83,1357.17 1333.83,1357.17 1334.5,1358.5 Z"/></g>
<g><path style="opacity:0.004" fill="#000000" d="M 1334.5,1358.5 C 1335.17,1358.5 1335.5,1358.83 1335.5,1359.5C 1335.17,1359.17 1334.83,1358.83 1334.5,1358.5 Z"/></g>
<g><path style="opacity:0.011" fill="#000000" d="M 1335.5,1359.5 C 1337.47,1360.51 1338.97,1361.84 1340,1363.5C 1341.01,1362.66 1342.18,1362.33 1343.5,1362.5C 1343.26,1363.79 1343.6,1364.79 1344.5,1365.5C 1344.5,1366.83 1345.17,1367.5 1346.5,1367.5C 1346.5,1368.17 1346.83,1368.5 1347.5,1368.5C 1347.5,1369.83 1348.17,1370.5 1349.5,1370.5C 1350.14,1372.77 1351.48,1374.6 1353.5,1376C 1351.4,1376.85 1351.4,1378.02 1353.5,1379.5C 1353.84,1380.34 1354.51,1380.67 1355.5,1380.5C 1356.53,1383.98 1358.36,1386.98 1361,1389.5C 1361.33,1388.83 1361.67,1388.17 1362,1387.5C 1362.42,1388.67 1363.09,1389.67 1364,1390.5C 1364.62,1391.45 1364.45,1392.28 1363.5,1393C 1364.79,1393.49 1366.13,1393.66 1367.5,1393.5C 1367.35,1392.45 1367.52,1391.45 1368,1390.5C 1368.67,1391.25 1369.5,1391.59 1370.5,1391.5C 1369.31,1392.53 1368.48,1393.87 1368,1395.5C 1364.91,1395 1362.08,1394 1359.5,1392.5C 1359.17,1391.17 1358.83,1391.17 1358.5,1392.5C 1347.25,1388.07 1341.08,1379.73 1340,1367.5C 1337.05,1365.24 1335.55,1362.57 1335.5,1359.5 Z"/></g>
<g><path style="opacity:0.004" fill="#000000" d="M 1344.5,1364.5 C 1345.83,1365.17 1345.83,1365.17 1344.5,1364.5 Z"/></g>
<g><path style="opacity:0.004" fill="#000000" d="M 1350.5,1364.5 C 1351.83,1365.17 1351.83,1365.17 1350.5,1364.5 Z"/></g>
<g><path style="opacity:0.004" fill="#000000" d="M 1346.5,1367.5 C 1347.62,1366.24 1348.29,1366.58 1348.5,1368.5C 1348.17,1368.5 1347.83,1368.5 1347.5,1368.5C 1346.83,1368.5 1346.5,1368.17 1346.5,1367.5 Z"/></g>
<g><path style="opacity:0.004" fill="#000000" d="M 1348.5,1368.5 C 1350.42,1368.71 1350.76,1369.38 1349.5,1370.5C 1349.17,1369.83 1348.83,1369.17 1348.5,1368.5 Z"/></g>
<g><path style="opacity:0.004" fill="#000000" d="M 1352.5,1369.5 C 1353.83,1370.17 1353.83,1370.17 1352.5,1369.5 Z"/></g>
<g><path style="opacity:0.004" fill="#000000" d="M 1352.5,1370.5 C 1351.83,1371.17 1351.83,1371.17 1352.5,1370.5 Z"/></g>
<g><path style="opacity:0.004" fill="#000000" d="M 1354.5,1375.5 C 1355.83,1376.17 1355.83,1376.17 1354.5,1375.5 Z"/></g>
<g><path style="opacity:0.004" fill="#000000" d="M 1353.5,1378.5 C 1354.83,1379.17 1354.83,1379.17 1353.5,1378.5 Z"/></g>
<g><path style="opacity:0.004" fill="#000000" d="M 1355.5,1379.5 C 1356.83,1380.17 1356.83,1380.17 1355.5,1379.5 Z"/></g>
<g><path style="opacity:0.004" fill="#000000" d="M 1357.5,1380.5 C 1358.83,1381.17 1358.83,1381.17 1357.5,1380.5 Z"/></g>
<g><path style="opacity:0.004" fill="#000000" d="M 1675.5,1382.5 C 1676.83,1383.17 1676.83,1383.17 1675.5,1382.5 Z"/></g>
<g><path style="opacity:0.004" fill="#000000" d="M 1367.5,1383.5 C 1368.83,1384.17 1368.83,1384.17 1367.5,1383.5 Z"/></g>
<g><path style="opacity:0.004" fill="#000000" d="M 1361.5,1384.5 C 1362.83,1385.17 1362.83,1385.17 1361.5,1384.5 Z"/></g>
<g><path style="opacity:0.004" fill="#000000" d="M 1684.5,1385.5 C 1685.83,1386.17 1685.83,1386.17 1684.5,1385.5 Z"/></g>
<g><path style="opacity:0.004" fill="#000000" d="M 1364.5,1388.5 C 1363.83,1387.17 1363.83,1387.17 1364.5,1388.5 Z"/></g>
<g><path style="opacity:0.004" fill="#000000" d="M 1365.5,1387.5 C 1366.83,1388.17 1366.83,1388.17 1365.5,1387.5 Z"/></g>
<g><path style="opacity:0.004" fill="#000000" d="M 1364.5,1388.5 C 1364.83,1388.5 1365.17,1388.5 1365.5,1388.5C 1365.31,1389.17 1364.98,1389.17 1364.5,1388.5 Z"/></g>
<g><path style="opacity:0.004" fill="#000000" d="M 1371.5,1391.5 C 1370.83,1390.17 1370.83,1390.17 1371.5,1391.5 Z"/></g>
<g><path style="opacity:0.004" fill="#000000" d="M 1371.5,1391.5 C 1372.83,1392.17 1372.83,1392.17 1371.5,1391.5 Z"/></g>
<g><path style="opacity:0.004" fill="#000000" d="M 1689.5,1391.5 C 1690.83,1392.17 1690.83,1392.17 1689.5,1391.5 Z"/></g>
<g><path style="opacity:0.004" fill="#000000" d="M 1358.5,1392.5 C 1358.83,1392.5 1359.17,1392.5 1359.5,1392.5C 1359.31,1393.17 1358.98,1393.17 1358.5,1392.5 Z"/></g>
<g><path style="opacity:0.004" fill="#000000" d="M 1372.5,1393.5 C 1373.83,1394.17 1373.83,1394.17 1372.5,1393.5 Z"/></g>
<g><path style="opacity:0.004" fill="#000000" d="M 1370.5,1394.5 C 1371.47,1394.99 1372.47,1395.49 1373.5,1396C 1371.84,1396.73 1370.84,1396.23 1370.5,1394.5 Z"/></g>
</svg>
